<svg width="60" height="60" viewBox="0 0 60 60" fill="none" xmlns="http://www.w3.org/2000/svg">
<path d="M0.36499 44.0898C0.36499 45.3555 1.39111 46.3816 2.65681 46.3816H18.4298C19.5186 46.3816 20.4571 47.1476 20.6752 48.2143L21.0014 49.8098H29.7286L30.0548 48.2143C30.2729 47.1477 31.2114 46.3816 32.3002 46.3816H48.0732C49.3389 46.3816 50.365 45.3555 50.365 44.0898V41.343H0.36499V44.0898Z" fill="#AFB0E9"/>
<path d="M48.0732 11.3635H44.4186V24.6112C44.4186 26.928 42.5337 28.8128 40.2169 28.8128H30.7758L27.5203 33.6138C27.0351 34.3293 26.2295 34.7564 25.365 34.7564C24.5005 34.7564 23.6949 34.3293 23.2097 33.6139L19.9542 28.8128H10.5131C8.19629 28.8128 6.31142 26.928 6.31142 24.6112V11.3635H2.65681C1.39111 11.3635 0.36499 12.3896 0.36499 13.6553V39.433H50.365V13.6553C50.365 12.3896 49.3389 11.3635 48.0732 11.3635Z" fill="#AFB0E9"/>
<path d="M30.3077 51.8499C30.2679 51.8079 30.2297 51.7643 30.1938 51.7192H20.5361C20.5002 51.7643 20.462 51.8079 20.4223 51.8499L17.8203 54.5985C17.4176 55.0248 17.1931 55.5878 17.1931 56.1745V57.2685H33.5368V56.1745C33.5368 55.5878 33.3123 55.0248 32.9096 54.5985L30.3077 51.8499Z" fill="#AFB0E9"/>
<path d="M25.3048 13.8767C24.963 13.8767 24.6874 13.9944 24.4767 14.2301C24.266 14.4659 24.1606 14.76 24.1606 15.1109C24.1606 15.4625 24.266 15.7504 24.4767 15.9764C24.6874 16.2024 24.963 16.3151 25.3048 16.3151C25.6356 16.3151 25.9088 16.2024 26.1256 15.9764C26.3412 15.7504 26.4489 15.4625 26.4489 15.1109C26.4489 14.76 26.3412 14.4659 26.1256 14.2301C25.9088 13.9943 25.6356 13.8767 25.3048 13.8767Z" fill="#AFB0E9"/>
<path d="M10.5133 26.9031H20.9669L24.7906 32.5421C25.066 32.9483 25.6644 32.9483 25.9398 32.5421L29.7635 26.9031H40.2171C41.4776 26.9031 42.509 25.8718 42.509 24.6113V6.42561C42.509 5.16511 41.4776 4.13379 40.2171 4.13379H10.5133C9.25275 4.13379 8.22144 5.16511 8.22144 6.42561V24.6113C8.22144 25.8718 9.25275 26.9031 10.5133 26.9031ZM18.1004 6.59887H38.7032C39.2306 6.59887 39.6582 7.02637 39.6582 7.55379C39.6582 8.08122 39.2306 8.50872 38.7032 8.50872H18.1004C17.573 8.50872 17.1455 8.08122 17.1455 7.55379C17.1455 7.02645 17.573 6.59887 18.1004 6.59887ZM28.451 15.525C28.6715 15.2292 28.7818 14.7998 28.7818 14.2374C28.7818 13.7964 28.7046 13.405 28.549 13.0638C28.3934 12.7226 28.1729 12.4341 27.8863 12.1977C27.6009 11.9625 27.259 11.7843 26.8634 11.6636C26.4665 11.5429 26.0279 11.4829 25.5464 11.4829C25.0944 11.4829 24.6632 11.5631 24.2516 11.7236C23.84 11.8847 23.4736 12.115 23.1527 12.4163C22.8306 12.7171 22.5757 13.0889 22.3846 13.5299C22.1935 13.9722 22.0992 14.4739 22.0992 15.0355C22.0992 15.5372 22.1837 16.0039 22.354 16.4357C22.5255 16.867 22.7681 17.2437 23.0842 17.5646C23.4002 17.8855 23.7849 18.1367 24.2357 18.3174C24.6878 18.4975 25.1998 18.5881 25.772 18.5881C26.2632 18.5881 26.6528 18.5428 26.9383 18.4528C27.225 18.3621 27.4577 18.2592 27.6389 18.1441C27.819 18.0289 27.9795 17.926 28.1204 17.8354C28.26 17.7454 28.4364 17.7 28.6472 17.7C28.8175 17.7 28.9657 17.7778 29.0907 17.9334C29.2169 18.089 29.2794 18.2623 29.2794 18.4528C29.2794 18.6935 29.1617 18.9115 28.9253 19.1075C28.6901 19.303 28.3961 19.469 28.0445 19.6043C27.693 19.7397 27.312 19.8426 26.9003 19.913C26.4887 19.9829 26.1077 20.0184 25.7574 20.0184C25.004 20.0184 24.3167 19.8928 23.6944 19.6417C23.072 19.3912 22.5355 19.047 22.0835 18.6108C21.6327 18.1741 21.2836 17.662 21.0374 17.0752C20.7911 16.4885 20.6686 15.8538 20.6686 15.1709C20.6686 14.3183 20.8046 13.5752 21.0753 12.9431C21.3461 12.311 21.705 11.7842 22.1521 11.3622C22.598 10.9408 23.1125 10.6271 23.6945 10.4214C24.2764 10.2162 24.8791 10.1133 25.5014 10.1133C26.996 10.1133 28.1305 10.452 28.9034 11.1295C29.6752 11.8063 30.0623 12.8378 30.0623 14.2228C30.0623 14.7446 29.9814 15.2065 29.821 15.6077C29.6605 16.0089 29.4596 16.3477 29.2195 16.6239C28.9781 16.9001 28.7123 17.1078 28.422 17.2486C28.1305 17.3889 27.8548 17.4593 27.5939 17.4593C27.3023 17.4593 27.0842 17.4367 26.9385 17.3914C26.7927 17.3461 26.68 17.2486 26.6004 17.0979C26.4191 17.2486 26.2157 17.3613 25.9903 17.4367C25.7649 17.512 25.5358 17.5493 25.3055 17.5493C24.9747 17.5493 24.6636 17.4844 24.372 17.3539C24.0804 17.2234 23.8306 17.0477 23.6199 16.8271C23.4092 16.6059 23.2401 16.3475 23.1151 16.0516C22.9889 15.7558 22.9264 15.4422 22.9264 15.1108C22.9264 14.7696 22.9889 14.4486 23.1151 14.1473C23.2401 13.8459 23.4092 13.5856 23.6199 13.3645C23.8306 13.1439 24.0804 12.9706 24.372 12.8451C24.6636 12.7201 24.9748 12.6571 25.3055 12.6571C25.7367 12.6571 26.1287 12.7778 26.4791 13.0184C26.5697 12.8175 26.7755 12.717 27.0965 12.717C27.4983 12.717 27.6992 12.9033 27.6992 13.2744V16.1343C27.9794 16.0242 28.2305 15.8208 28.451 15.525ZM18.1004 21.623H38.7032C39.2306 21.623 39.6582 22.0505 39.6582 22.578C39.6582 23.1054 39.2306 23.5329 38.7032 23.5329H18.1004C17.573 23.5329 17.1455 23.1054 17.1455 22.578C17.1455 22.0505 17.573 21.623 18.1004 21.623ZM12.0271 6.59887H14.5627C15.0901 6.59887 15.5177 7.02637 15.5177 7.55379C15.5177 8.08122 15.0901 8.50872 14.5627 8.50872H12.0271C11.4997 8.50872 11.0722 8.08122 11.0722 7.55379C11.0722 7.02645 11.4997 6.59887 12.0271 6.59887ZM11.0722 22.578C11.0722 22.0506 11.4997 21.623 12.0271 21.623H14.5627C15.0901 21.623 15.5177 22.0506 15.5177 22.578C15.5177 23.1054 15.0901 23.5329 14.5627 23.5329H12.0271C11.4997 23.5329 11.0722 23.1053 11.0722 22.578Z" fill="#AFB0E9"/>
</svg>
