<svg width="39" height="39" viewBox="0 0 39 39" fill="none" xmlns="http://www.w3.org/2000/svg">
<path d="M10.3398 3.65625H8.4502C8.01922 3.65625 7.60589 3.82745 7.30115 4.1322C6.9964 4.43695 6.8252 4.85027 6.8252 5.28125V33.7188C6.8252 34.1497 6.9964 34.5631 7.30115 34.8678C7.60589 35.1725 8.01922 35.3438 8.4502 35.3438H10.3397" stroke="#666AD6" stroke-width="1.25" stroke-linecap="round" stroke-linejoin="round"/>
<path d="M10.3398 3.65625V35.3438H30.5502C30.9812 35.3438 31.3945 35.1725 31.6993 34.8678C32.004 34.5631 32.1752 34.1497 32.1752 33.7188V5.28125C32.1752 4.85027 32.004 4.43695 31.6993 4.1322C31.3945 3.82745 30.9812 3.65625 30.5502 3.65625H10.3398Z" stroke="#666AD6" stroke-width="1.25" stroke-linecap="round" stroke-linejoin="round"/>
<path d="M29.7886 6.72412H12.7261V18.0991H29.7886V6.72412Z" stroke="#666AD6" stroke-width="1.25" stroke-linecap="round" stroke-linejoin="round"/>
<path d="M21.2573 6.72437V12.4119H12.7261" stroke="#666AD6" stroke-width="1.25" stroke-linecap="round" stroke-linejoin="round"/>
<path d="M21.2573 8.48877H29.7886" stroke="#666AD6" stroke-width="1.25" stroke-linecap="round" stroke-linejoin="round"/>
<path d="M21.2573 10.4502H29.7886" stroke="#666AD6" stroke-width="1.25" stroke-linecap="round" stroke-linejoin="round"/>
<path d="M21.2573 12.4116H29.7886" stroke="#666AD6" stroke-width="1.25" stroke-linecap="round" stroke-linejoin="round"/>
<path d="M12.7261 14.3728H29.7886" stroke="#666AD6" stroke-width="1.25" stroke-linecap="round" stroke-linejoin="round"/>
<path d="M12.7261 16.3342H29.7886" stroke="#666AD6" stroke-width="1.25" stroke-linecap="round" stroke-linejoin="round"/>
</svg>
