<svg width="61" height="60" viewBox="0 0 61 60" fill="none" xmlns="http://www.w3.org/2000/svg">
<path fill-rule="evenodd" clip-rule="evenodd" d="M36.4828 37.4362C35.8788 37.4362 35.2394 37.3654 34.5971 37.2769L34.1993 37.2238L32.3314 41.0233C32.1988 41.2888 31.9984 41.513 31.745 41.6723L27.0427 44.6458C26.0085 45.3007 24.6502 44.6045 24.5766 43.3833L24.2407 37.8787C24.223 37.6014 24.279 37.3211 24.4027 37.0704L25.6372 34.557C25.9495 33.9257 25.7816 33.1912 25.2866 32.6927C24.0138 31.4124 23.0621 29.9315 22.4404 28.2589C21.3474 25.2175 21.309 21.6068 22.6938 18.3825C23.3361 16.5683 24.9006 14.232 24.9006 14.232C26.586 11.5859 28.8016 8.93093 31.3031 6.56212L31.3001 6.54739C31.3266 6.51788 31.6508 6.22584 32.1546 5.75088H-0.052002V50H44.1432V34.9642C43.6424 35.3093 43.1267 35.6515 42.5729 35.9435C40.6724 36.9347 38.6277 37.4362 36.4827 37.4362M47.6494 0L48.1503 1.35697C48.881 3.27737 49.3613 5.36001 49.6441 7.48693L46.4768 9.43978L49.9093 10.5844C50.0537 13.67 49.7856 16.7527 49.2493 19.5876L45.6165 20.4726L48.501 22.8296C48.003 24.5966 47.4255 26.2338 46.7361 27.6114C46.1763 28.7324 45.3218 30.0304 44.1433 31.1808C43.3183 32.0068 42.3165 32.7443 41.1969 33.3343C39.8416 34.0423 38.28 34.4848 36.4828 34.4848C36.0055 34.4848 35.5016 34.4258 34.9978 34.355L38.4745 23.2868C38.9607 21.7322 38.7603 21.6496 38.0237 23.1039L32.5965 33.8063L29.8535 39.3817L27.3815 40.9451L27.2017 38.0542L29.9124 32.5378C27.6172 31.2103 26.0261 29.4404 25.1982 27.2279C24.0816 24.1157 24.827 21.1274 25.4605 19.3958H29.4115L27.3844 15.8205C28.8665 13.493 30.8965 11.0092 33.3331 8.70231C33.3331 8.70231 35.2158 6.87336 36.7509 5.75237C39.6648 3.51043 42.9353 1.62245 46.2941 0.471975L47.6494 0ZM16.0498 35.442C16.7658 37.2386 17.4876 37.9082 17.9207 37.9377C18.6956 38.0055 20.1335 36.3948 20.761 35.2709C21.1558 34.557 22.0515 34.3034 22.7645 34.7016C23.4746 35.0969 23.731 35.9966 23.3332 36.7075C23.0887 37.1441 20.9201 40.8876 17.9561 40.8876C17.8824 40.8876 17.8088 40.8847 17.7322 40.8817C15.9054 40.7637 14.4175 39.3005 13.3127 36.5365C12.087 33.4685 11.2914 33.2089 11.2826 33.206C10.6256 33.4479 9.36159 36.3831 8.75759 39.2416C8.58964 40.038 7.80592 40.5543 7.01041 40.3832C6.21487 40.2121 5.70812 39.4304 5.87309 38.6339C6.38284 36.212 7.91199 30.5451 11.0764 30.2708C13.5837 30.0525 15.1188 33.1175 16.0498 35.442Z" fill="#AFB0E9"/>
</svg>
