<svg width="44" height="44" viewBox="0 0 44 44" fill="none" xmlns="http://www.w3.org/2000/svg">
<path d="M8.15955 25.4983L20.906 37.4723C21.3451 37.8846 21.5646 38.0909 21.8234 38.1417C21.94 38.1646 22.0599 38.1646 22.1765 38.1417C22.4354 38.0909 22.6549 37.8846 23.0939 37.4723L35.8404 25.4983C39.4267 22.1293 39.8622 16.5853 36.846 12.6977L36.2789 11.9667C32.6705 7.31595 25.4276 8.09591 22.8923 13.4082C22.534 14.1586 21.4659 14.1586 21.1077 13.4082C18.5724 8.09591 11.3295 7.31595 7.72114 11.9667L7.154 12.6977C4.13773 16.5853 4.57324 22.1293 8.15955 25.4983Z" stroke="#666AD6" stroke-width="1.5"/>
</svg>
