<svg width="30" height="30" viewBox="0 0 30 30" fill="none" xmlns="http://www.w3.org/2000/svg">
<path d="M15.0311 4.91875C13.9484 4.91924 12.8901 5.24076 11.99 5.84261C11.0899 6.44445 10.3884 7.29965 9.97434 8.30009C9.56018 9.30057 9.45197 10.4013 9.66331 11.4632C9.8747 12.5252 10.3961 13.5006 11.1618 14.2663C11.9274 15.0319 12.9028 15.5533 13.9648 15.7647C15.0267 15.9761 16.1275 15.8679 17.1279 15.4537C18.1283 15.0396 18.9836 14.3381 19.5854 13.4381C20.1873 12.538 20.5088 11.4797 20.5093 10.3969C20.508 8.94439 19.9304 7.55171 18.9034 6.52463C17.8763 5.49755 16.4836 4.92 15.0311 4.91875ZM15.0311 14.8722C14.1455 14.8717 13.2799 14.6086 12.5438 14.1161C11.8077 13.6237 11.2342 12.9241 10.8957 12.1057C10.5573 11.2873 10.4691 10.3869 10.6423 9.51835C10.8156 8.64988 11.2425 7.85221 11.8691 7.22636C12.4957 6.60047 13.2938 6.17444 14.1625 6.00216C15.0312 5.82984 15.9315 5.91904 16.7495 6.25841C17.5675 6.59777 18.2665 7.17208 18.7582 7.90874C19.2498 8.64539 19.5119 9.51127 19.5114 10.3969C19.5108 11.5845 19.0384 12.7232 18.1981 13.5624C17.358 14.4017 16.2187 14.8729 15.0311 14.8722ZM25.0694 26.1179C24.9239 26.2513 24.749 26.3484 24.5588 26.4014C24.3686 26.4544 24.1687 26.4618 23.9751 26.4229C23.7816 26.384 23.6 26.2999 23.4451 26.1776C23.2902 26.0552 23.1664 25.898 23.0837 25.7187C22.2256 23.8827 20.0353 20.8044 15.0311 20.8044C13.6785 20.8007 12.3427 21.1047 11.1248 21.6933C9.90693 22.2819 8.83884 23.1398 8.00136 24.202C7.91933 24.3059 7.79939 24.3729 7.66793 24.3884C7.53646 24.4038 7.40425 24.3664 7.30037 24.2843C7.1965 24.2023 7.12949 24.0823 7.11403 23.9509C7.09861 23.8194 7.13603 23.6872 7.21805 23.5834C8.14949 22.4034 9.33667 21.4504 10.6901 20.7961C12.0436 20.1419 13.5278 19.8035 15.0311 19.8065C20.7937 19.8065 23.2134 23.6482 23.9868 25.2947C24.0026 25.333 24.0278 25.3668 24.06 25.3929C24.0923 25.4191 24.1305 25.4367 24.1714 25.4443C24.212 25.4527 24.2541 25.4512 24.294 25.4399C24.334 25.4286 24.3706 25.4079 24.4009 25.3795C26.0442 23.9011 27.3114 22.0524 28.0976 19.9864C28.8837 17.9205 29.1659 15.697 28.9211 13.5002C28.7198 11.6633 28.1561 9.88451 27.2627 8.26686C26.3693 6.64921 25.164 5.22484 23.7164 4.07619C22.2689 2.92753 20.6079 2.07738 18.8296 1.57496C17.0513 1.07254 15.1909 0.927826 13.3563 1.1492C11.5217 1.37056 9.74922 1.95362 8.14145 2.86461C6.53368 3.7756 5.12254 4.99643 3.98977 6.45643C2.85699 7.91647 2.02504 9.58665 1.54207 11.3703C1.05911 13.1541 0.934728 15.0159 1.17613 16.8479C1.46007 18.9976 2.24039 21.0516 3.45533 22.8476C4.67027 24.6436 6.28652 26.1321 8.17613 27.1955C10.0658 28.2589 12.177 28.868 14.3426 28.9745C16.5083 29.081 18.6691 28.6821 20.654 27.8092C20.7139 27.7827 20.7785 27.7682 20.8441 27.7667C20.9096 27.7651 20.9748 27.7764 21.0359 27.8C21.0971 27.8237 21.153 27.8591 21.2005 27.9044C21.2479 27.9496 21.286 28.0037 21.3125 28.0637C21.3391 28.1236 21.3536 28.1882 21.3551 28.2537C21.3567 28.3193 21.3453 28.3845 21.3217 28.4456C21.2981 28.5068 21.2627 28.5627 21.2174 28.6101C21.1722 28.6576 21.1181 28.6957 21.0581 28.7222C17.6087 30.2451 13.7123 30.413 10.1447 29.1925C6.57709 27.972 3.59999 25.4526 1.80619 22.136C0.0123845 18.8195 -0.466544 14.9489 0.464759 11.2952C1.39606 7.64136 3.66928 4.47237 6.83179 2.4191C9.99429 0.365826 13.8141 -0.421079 17.5307 0.215063C21.2472 0.851202 24.5879 2.86373 26.8875 5.85194C29.187 8.84012 30.2769 12.5848 29.94 16.3403C29.6031 20.0958 27.8642 23.5867 25.0694 26.1179Z" fill="#666AD6"/>
</svg>
