<svg width="60" height="60" viewBox="0 0 60 60" fill="none" xmlns="http://www.w3.org/2000/svg">
<g clip-path="url(#clip0_11_657)">
<path d="M34.0731 36.9675C29.7193 35.5931 30.9587 34.499 35.1137 32.9381C37.104 32.189 35.8937 30.6093 35.9481 29.3456C35.9724 28.7672 38.2468 28.8825 38.0818 26.6512C37.9656 25.08 34.5043 22.8412 33.5612 21.8859C33.0165 21.3347 34.6712 19.8262 33.5059 18.4997C31.9149 16.6865 31.6637 13.5318 30.7009 11.7675C30.7009 11.7675 31.4349 10.6462 30.8724 10.0087C26.0199 4.5159 7.91212 5.02028 3.28462 13.1043C-1.91007 22.1793 -1.97944 34.7222 8.8215 41.4797C13.6252 44.4843 7.47243 55.125 7.47243 55.125H26.5215C26.5215 53.3081 24.3971 46.7906 28.1152 47.0831C31.3459 47.3372 35.3021 47.1975 34.9515 43.5487C34.8456 42.4481 34.7209 41.4572 35.4896 40.545C36.2584 39.6337 37.3712 38.0081 34.0731 36.9675Z" fill="#797CDB" fill-opacity="0.6"/>
<path d="M38.4333 35.2548L56.1249 37.5723V32.9382L38.4333 35.2548Z" fill="#797CDB" fill-opacity="0.6"/>
<path d="M52.8062 50.5135L54.7037 46.5L38.4333 37.7175L52.8062 50.5135Z" fill="#797CDB" fill-opacity="0.6"/>
<path d="M54.7037 23.9682L52.8062 19.9539L38.4333 32.7517L54.7037 23.9682Z" fill="#797CDB" fill-opacity="0.6"/>
</g>
<defs>
<clipPath id="clip0_11_657">
<rect width="60" height="60" fill="white"/>
</clipPath>
</defs>
</svg>
