<svg width="60" height="60" viewBox="0 0 60 60" fill="none" xmlns="http://www.w3.org/2000/svg">
<path fill-rule="evenodd" clip-rule="evenodd" d="M41.625 5.3457C41.625 4.3107 40.785 3.4707 39.75 3.4707H2.25C1.215 3.4707 0.375 4.3107 0.375 5.3457V54.0957C0.375 55.1326 1.215 55.9707 2.25 55.9707H39.75C40.785 55.9707 41.625 55.1326 41.625 54.0957V5.3457ZM11.625 46.8751H30.375C31.41 46.8751 32.25 46.0351 32.25 45.0001C32.25 43.9651 31.41 43.1251 30.375 43.1251H11.625C10.59 43.1251 9.75 43.9651 9.75 45.0001C9.75 46.0351 10.59 46.8751 11.625 46.8751ZM15.375 41.2501H26.625C27.66 41.2501 28.5 40.4101 28.5 39.3751C28.5 38.3401 27.66 37.5001 26.625 37.5001H15.375C14.34 37.5001 13.5 38.3401 13.5 39.3751C13.5 40.4101 14.34 41.2501 15.375 41.2501ZM18.2887 29.0626H23.7112L24.8456 32.4676C25.1738 33.4501 26.2369 33.9807 27.2175 33.6545C28.2 33.3263 28.7306 32.2632 28.4044 31.2826L22.7794 14.4076C22.5244 13.6407 21.8063 13.1251 21 13.1251C20.1937 13.1251 19.4756 13.6407 19.2206 14.4076L13.5956 31.2826C13.2694 32.2632 13.8 33.3263 14.7825 33.6545C15.7631 33.9807 16.8263 33.4501 17.1544 32.4676L18.2887 29.0626ZM19.5394 25.3126H22.4606L21 20.9288L19.5394 25.3126Z" fill="#AFB0E9"/>
</svg>
